<svg width="28" height="28" viewBox="0 0 28 28" fill="none" xmlns="http://www.w3.org/2000/svg">
<path d="M9.28159 21.6602L9.28159 18.5661L6.1875 18.5661L6.1875 21.6602L9.28159 21.6602Z" fill="white"/>
<path d="M12.3756 24.7546L12.3756 21.6603L9.28125 21.6603L9.28125 24.7546L12.3756 24.7546Z" fill="white"/>
<path d="M15.4733 27.8491L15.4733 24.7547L12.3789 24.7547L12.3789 27.8491L15.4733 27.8491Z" fill="white"/>
<path d="M3.09438 12.3772L-2.70519e-07 12.3772L-1.3526e-07 15.4715L3.09438 15.4715L3.09438 18.5659L6.18876 18.5659L6.18876 15.4715L27.849 15.4715L27.849 12.3772L6.18876 12.3772L6.18876 9.28278L3.09438 9.28278L3.09438 12.3772Z" fill="white"/>
<path d="M6.1875 9.28271L9.28159 9.28271L9.28159 6.18862L6.1875 6.18862L6.1875 9.28271Z" fill="white"/>
<path d="M9.28125 6.18896L12.3756 6.18896L12.3756 3.09459L9.28125 3.09459L9.28125 6.18896Z" fill="white"/>
<path d="M12.3789 3.09448L15.4733 3.09448L15.4733 0.000101578L12.3789 0.000101713L12.3789 3.09448Z" fill="white"/>
</svg>
