<svg width="28" height="28" viewBox="0 0 28 28" fill="none" xmlns="http://www.w3.org/2000/svg">
<g opacity="0.7">
<path d="M18.57 6.18896L18.57 9.28306L21.6641 9.28306L21.6641 6.18896L18.57 6.18896Z" fill="white"/>
<path d="M15.4759 3.09448L15.4759 6.18886L18.5703 6.18886L18.5703 3.09448L15.4759 3.09448Z" fill="white"/>
<path d="M12.3783 -1.3526e-07L12.3783 3.09438L15.4727 3.09438L15.4727 0L12.3783 -1.3526e-07Z" fill="white"/>
<path d="M24.7572 15.472L27.8516 15.472L27.8516 12.3776L24.7572 12.3776L24.7572 9.2832L21.6628 9.2832L21.6628 12.3776L0.00258687 12.3776L0.00258673 15.472L21.6628 15.472L21.6628 18.5663L24.7572 18.5663L24.7572 15.472Z" fill="white"/>
<path d="M21.6641 18.5664L18.57 18.5664L18.57 21.6605L21.6641 21.6605L21.6641 18.5664Z" fill="white"/>
<path d="M18.5703 21.6602L15.4759 21.6602L15.4759 24.7545L18.5703 24.7545L18.5703 21.6602Z" fill="white"/>
<path d="M15.4727 24.7546L12.3783 24.7546L12.3783 27.849L15.4727 27.849L15.4727 24.7546Z" fill="white"/>
</g>
</svg>
